<mxfile host="Electron" agent="Mozilla/5.0 (Windows NT 10.0; Win64; x64) AppleWebKit/537.36 (KHTML, like Gecko) draw.io/28.2.5 Chrome/138.0.7204.251 Electron/37.6.1 Safari/537.36" version="28.2.5">
  <diagram name="Page-1" id="k07u10hK0EjWZ5x1XdZI">
    <mxGraphModel dx="690" dy="1690" grid="1" gridSize="10" guides="1" tooltips="1" connect="1" arrows="1" fold="1" page="1" pageScale="1" pageWidth="827" pageHeight="1169" math="0" shadow="0">
      <root>
        <mxCell id="0" />
        <mxCell id="1" parent="0" />
        <mxCell id="yCEB16PVv246RZx19m0T-1" value="" style="whiteSpace=wrap;html=1;aspect=fixed;" parent="1" vertex="1">
          <mxGeometry x="200" y="-40" width="700" height="700" as="geometry" />
        </mxCell>
        <mxCell id="yCEB16PVv246RZx19m0T-2" value="Actor" style="shape=umlActor;verticalLabelPosition=bottom;verticalAlign=top;html=1;outlineConnect=0;" parent="1" vertex="1">
          <mxGeometry x="110" y="210" width="30" height="60" as="geometry" />
        </mxCell>
        <mxCell id="yCEB16PVv246RZx19m0T-3" value="Actor" style="shape=umlActor;verticalLabelPosition=bottom;verticalAlign=top;html=1;outlineConnect=0;" parent="1" vertex="1">
          <mxGeometry x="110" y="30" width="30" height="60" as="geometry" />
        </mxCell>
        <mxCell id="yCEB16PVv246RZx19m0T-4" value="Actor" style="shape=umlActor;verticalLabelPosition=bottom;verticalAlign=top;html=1;outlineConnect=0;" parent="1" vertex="1">
          <mxGeometry x="110" y="570" width="30" height="60" as="geometry" />
        </mxCell>
        <mxCell id="yCEB16PVv246RZx19m0T-5" value="Actor" style="shape=umlActor;verticalLabelPosition=bottom;verticalAlign=top;html=1;outlineConnect=0;" parent="1" vertex="1">
          <mxGeometry x="110" y="415" width="30" height="60" as="geometry" />
        </mxCell>
        <mxCell id="yCEB16PVv246RZx19m0T-7" value="" style="ellipse;whiteSpace=wrap;html=1;" parent="1" vertex="1">
          <mxGeometry x="250" y="30" width="150" height="60" as="geometry" />
        </mxCell>
        <mxCell id="yCEB16PVv246RZx19m0T-31" value="" style="endArrow=none;html=1;rounded=0;" parent="1" edge="1">
          <mxGeometry width="50" height="50" relative="1" as="geometry">
            <mxPoint x="150" y="230" as="sourcePoint" />
            <mxPoint x="240" y="160" as="targetPoint" />
          </mxGeometry>
        </mxCell>
        <mxCell id="yCEB16PVv246RZx19m0T-32" value="" style="endArrow=none;html=1;rounded=0;" parent="1" edge="1">
          <mxGeometry width="50" height="50" relative="1" as="geometry">
            <mxPoint x="130" y="59.16941176470584" as="sourcePoint" />
            <mxPoint x="250" y="59.16999999999996" as="targetPoint" />
          </mxGeometry>
        </mxCell>
        <mxCell id="yCEB16PVv246RZx19m0T-33" value="" style="endArrow=none;html=1;rounded=0;" parent="1" edge="1">
          <mxGeometry width="50" height="50" relative="1" as="geometry">
            <mxPoint x="140" y="445" as="sourcePoint" />
            <mxPoint x="260" y="385" as="targetPoint" />
          </mxGeometry>
        </mxCell>
        <mxCell id="yCEB16PVv246RZx19m0T-34" value="" style="endArrow=none;html=1;rounded=0;" parent="1" edge="1">
          <mxGeometry width="50" height="50" relative="1" as="geometry">
            <mxPoint x="140" y="599.7199999999999" as="sourcePoint" />
            <mxPoint x="260" y="599.720588235294" as="targetPoint" />
            <Array as="points">
              <mxPoint x="200" y="599.55" />
            </Array>
          </mxGeometry>
        </mxCell>
        <mxCell id="yCEB16PVv246RZx19m0T-37" value="consulter la liste des restau" style="text;html=1;align=center;verticalAlign=middle;whiteSpace=wrap;rounded=0;" parent="1" vertex="1">
          <mxGeometry x="275" y="45" width="100" height="30" as="geometry" />
        </mxCell>
        <mxCell id="yCEB16PVv246RZx19m0T-39" value="" style="ellipse;whiteSpace=wrap;html=1;" parent="1" vertex="1">
          <mxGeometry x="250" y="130" width="150" height="60" as="geometry" />
        </mxCell>
        <mxCell id="yCEB16PVv246RZx19m0T-40" value="évaluer le restau" style="text;html=1;align=center;verticalAlign=middle;whiteSpace=wrap;rounded=0;" parent="1" vertex="1">
          <mxGeometry x="277" y="145" width="98" height="30" as="geometry" />
        </mxCell>
        <mxCell id="yCEB16PVv246RZx19m0T-41" value="" style="ellipse;whiteSpace=wrap;html=1;" parent="1" vertex="1">
          <mxGeometry x="250" y="260" width="150" height="60" as="geometry" />
        </mxCell>
        <mxCell id="yCEB16PVv246RZx19m0T-42" value="" style="endArrow=none;html=1;rounded=0;" parent="1" edge="1">
          <mxGeometry width="50" height="50" relative="1" as="geometry">
            <mxPoint x="150" y="250" as="sourcePoint" />
            <mxPoint x="250" y="290" as="targetPoint" />
          </mxGeometry>
        </mxCell>
        <mxCell id="yCEB16PVv246RZx19m0T-43" value="réserver table" style="text;html=1;align=center;verticalAlign=middle;whiteSpace=wrap;rounded=0;" parent="1" vertex="1">
          <mxGeometry x="285" y="275" width="80" height="30" as="geometry" />
        </mxCell>
        <mxCell id="yCEB16PVv246RZx19m0T-45" value="" style="ellipse;whiteSpace=wrap;html=1;" parent="1" vertex="1">
          <mxGeometry x="500" y="150" width="150" height="60" as="geometry" />
        </mxCell>
        <mxCell id="yCEB16PVv246RZx19m0T-46" value="s&#39;authentifier" style="text;html=1;align=center;verticalAlign=middle;whiteSpace=wrap;rounded=0;" parent="1" vertex="1">
          <mxGeometry x="525" y="165" width="100" height="30" as="geometry" />
        </mxCell>
        <mxCell id="yCEB16PVv246RZx19m0T-47" value="" style="endArrow=none;dashed=1;html=1;rounded=0;" parent="1" edge="1">
          <mxGeometry width="50" height="50" relative="1" as="geometry">
            <mxPoint x="400" y="160" as="sourcePoint" />
            <mxPoint x="500" y="170" as="targetPoint" />
          </mxGeometry>
        </mxCell>
        <mxCell id="yCEB16PVv246RZx19m0T-48" value="include" style="text;html=1;align=center;verticalAlign=middle;whiteSpace=wrap;rounded=0;rotation=5;" parent="1" vertex="1">
          <mxGeometry x="414" y="135" width="60" height="30" as="geometry" />
        </mxCell>
        <mxCell id="yCEB16PVv246RZx19m0T-49" value="" style="endArrow=none;dashed=1;html=1;rounded=0;" parent="1" edge="1">
          <mxGeometry width="50" height="50" relative="1" as="geometry">
            <mxPoint x="401" y="300" as="sourcePoint" />
            <mxPoint x="541" y="210" as="targetPoint" />
          </mxGeometry>
        </mxCell>
        <mxCell id="yCEB16PVv246RZx19m0T-50" value="include" style="text;html=1;align=center;verticalAlign=middle;whiteSpace=wrap;rounded=0;rotation=-30;" parent="1" vertex="1">
          <mxGeometry x="430.0010807734623" y="229.99599361155867" width="60" height="30" as="geometry" />
        </mxCell>
        <mxCell id="yCEB16PVv246RZx19m0T-52" value="" style="ellipse;whiteSpace=wrap;html=1;" parent="1" vertex="1">
          <mxGeometry x="250" y="370" width="150" height="60" as="geometry" />
        </mxCell>
        <mxCell id="yCEB16PVv246RZx19m0T-53" value="valider la demande de réservation" style="text;html=1;align=center;verticalAlign=middle;whiteSpace=wrap;rounded=0;" parent="1" vertex="1">
          <mxGeometry x="251" y="385" width="150" height="30" as="geometry" />
        </mxCell>
        <mxCell id="yCEB16PVv246RZx19m0T-55" value="" style="ellipse;whiteSpace=wrap;html=1;" parent="1" vertex="1">
          <mxGeometry x="251" y="475" width="150" height="60" as="geometry" />
        </mxCell>
        <mxCell id="yCEB16PVv246RZx19m0T-56" value="" style="ellipse;whiteSpace=wrap;html=1;" parent="1" vertex="1">
          <mxGeometry x="250" y="570" width="150" height="60" as="geometry" />
        </mxCell>
        <mxCell id="yCEB16PVv246RZx19m0T-57" value="" style="ellipse;whiteSpace=wrap;html=1;" parent="1" vertex="1">
          <mxGeometry x="480" y="570" width="150" height="60" as="geometry" />
        </mxCell>
        <mxCell id="yCEB16PVv246RZx19m0T-58" value="inscrire son restaurant" style="text;html=1;align=center;verticalAlign=middle;whiteSpace=wrap;rounded=0;" parent="1" vertex="1">
          <mxGeometry x="260" y="490" width="130" height="30" as="geometry" />
        </mxCell>
        <mxCell id="yCEB16PVv246RZx19m0T-59" value="valider un retau" style="text;html=1;align=center;verticalAlign=middle;whiteSpace=wrap;rounded=0;" parent="1" vertex="1">
          <mxGeometry x="285" y="585" width="85" height="30" as="geometry" />
        </mxCell>
        <mxCell id="yCEB16PVv246RZx19m0T-60" value="effectuer une visite" style="text;html=1;align=center;verticalAlign=middle;whiteSpace=wrap;rounded=0;" parent="1" vertex="1">
          <mxGeometry x="500" y="585" width="110" height="30" as="geometry" />
        </mxCell>
        <mxCell id="yCEB16PVv246RZx19m0T-61" value="" style="endArrow=none;dashed=1;html=1;rounded=0;" parent="1" edge="1">
          <mxGeometry width="50" height="50" relative="1" as="geometry">
            <mxPoint x="401" y="599.38" as="sourcePoint" />
            <mxPoint x="481" y="599.38" as="targetPoint" />
          </mxGeometry>
        </mxCell>
        <mxCell id="yCEB16PVv246RZx19m0T-62" value="extend" style="text;html=1;align=center;verticalAlign=middle;whiteSpace=wrap;rounded=0;" parent="1" vertex="1">
          <mxGeometry x="410" y="570" width="60" height="30" as="geometry" />
        </mxCell>
        <mxCell id="yCEB16PVv246RZx19m0T-63" value="" style="ellipse;whiteSpace=wrap;html=1;" parent="1" vertex="1">
          <mxGeometry x="525" y="310" width="150" height="60" as="geometry" />
        </mxCell>
        <mxCell id="yCEB16PVv246RZx19m0T-64" value="" style="ellipse;whiteSpace=wrap;html=1;" parent="1" vertex="1">
          <mxGeometry x="525" y="415" width="150" height="60" as="geometry" />
        </mxCell>
        <mxCell id="yCEB16PVv246RZx19m0T-65" value="confirmer la demande" style="text;html=1;align=center;verticalAlign=middle;whiteSpace=wrap;rounded=0;" parent="1" vertex="1">
          <mxGeometry x="525" y="325" width="150" height="30" as="geometry" />
        </mxCell>
        <mxCell id="yCEB16PVv246RZx19m0T-66" value="refuser la demande" style="text;html=1;align=center;verticalAlign=middle;whiteSpace=wrap;rounded=0;" parent="1" vertex="1">
          <mxGeometry x="540" y="430" width="120" height="30" as="geometry" />
        </mxCell>
        <mxCell id="yCEB16PVv246RZx19m0T-67" value="" style="endArrow=classic;html=1;rounded=0;" parent="1" edge="1">
          <mxGeometry width="50" height="50" relative="1" as="geometry">
            <mxPoint x="520" y="350" as="sourcePoint" />
            <mxPoint x="410" y="400" as="targetPoint" />
          </mxGeometry>
        </mxCell>
        <mxCell id="yCEB16PVv246RZx19m0T-68" value="" style="endArrow=classic;html=1;rounded=0;" parent="1" edge="1">
          <mxGeometry width="50" height="50" relative="1" as="geometry">
            <mxPoint x="520" y="445" as="sourcePoint" />
            <mxPoint x="410" y="415" as="targetPoint" />
          </mxGeometry>
        </mxCell>
        <mxCell id="yCEB16PVv246RZx19m0T-69" value="" style="ellipse;whiteSpace=wrap;html=1;" parent="1" vertex="1">
          <mxGeometry x="500" y="45" width="150" height="60" as="geometry" />
        </mxCell>
        <mxCell id="yCEB16PVv246RZx19m0T-70" value="déposer des commentaires" style="text;html=1;align=center;verticalAlign=middle;whiteSpace=wrap;rounded=0;" parent="1" vertex="1">
          <mxGeometry x="500" y="60" width="150" height="30" as="geometry" />
        </mxCell>
        <mxCell id="yCEB16PVv246RZx19m0T-71" value="" style="endArrow=none;dashed=1;html=1;rounded=0;" parent="1" edge="1">
          <mxGeometry width="50" height="50" relative="1" as="geometry">
            <mxPoint x="370" y="130" as="sourcePoint" />
            <mxPoint x="500" y="80" as="targetPoint" />
          </mxGeometry>
        </mxCell>
        <mxCell id="yCEB16PVv246RZx19m0T-72" value="extend" style="text;html=1;align=center;verticalAlign=middle;whiteSpace=wrap;rounded=0;rotation=-20;" parent="1" vertex="1">
          <mxGeometry x="400" y="80" width="60" height="30" as="geometry" />
        </mxCell>
        <mxCell id="yCEB16PVv246RZx19m0T-74" value="" style="endArrow=none;html=1;rounded=0;" parent="1" edge="1">
          <mxGeometry width="50" height="50" relative="1" as="geometry">
            <mxPoint x="150" y="470" as="sourcePoint" />
            <mxPoint x="251" y="500" as="targetPoint" />
          </mxGeometry>
        </mxCell>
        <mxCell id="yCEB16PVv246RZx19m0T-75" value="&lt;font style=&quot;font-size: 19px;&quot;&gt;site web gastro&lt;/font&gt;" style="text;html=1;align=center;verticalAlign=middle;whiteSpace=wrap;rounded=0;" parent="1" vertex="1">
          <mxGeometry x="450" y="-20" width="200" height="30" as="geometry" />
        </mxCell>
      </root>
    </mxGraphModel>
  </diagram>
</mxfile>
